<svg xmlns="http://www.w3.org/2000/svg" viewBox="0 0 1200 900" role="img" aria-labelledby="title desc">
  <title id="title">Biology kit accessories</title>
  <desc id="desc">Illustration of biology kit accessories including a tray, gloves, droppers, and slides.</desc>
  <rect width="1200" height="900" fill="#fcf7ea"/>
  <rect x="0" y="610" width="1200" height="290" fill="#e6d8c0"/>
  <rect x="180" y="230" width="500" height="360" rx="30" fill="#7eb7b1"/>
  <rect x="222" y="270" width="416" height="280" rx="22" fill="#eff7f6"/>
  <rect x="270" y="320" width="126" height="70" rx="18" fill="#ffffff"/>
  <rect x="420" y="320" width="126" height="70" rx="18" fill="#ffffff"/>
  <rect x="270" y="418" width="126" height="70" rx="18" fill="#ffffff"/>
  <rect x="420" y="418" width="126" height="70" rx="18" fill="#ffffff"/>
  <rect x="790" y="250" width="72" height="250" rx="28" fill="#ec6f36"/>
  <rect x="894" y="250" width="72" height="250" rx="28" fill="#f2c66d"/>
  <rect x="998" y="250" width="72" height="250" rx="28" fill="#275245"/>
  <path d="M760 630c40-96 156-96 196 0H760Z" fill="#ffffff"/>
  <path d="M950 630c40-96 156-96 196 0H950Z" fill="#ffffff"/>
  <rect x="760" y="630" width="196" height="76" rx="26" fill="#ffffff"/>
  <rect x="950" y="630" width="196" height="76" rx="26" fill="#ffffff"/>
</svg>
