<svg xmlns="http://www.w3.org/2000/svg" viewBox="0 0 1200 900" role="img" aria-labelledby="title desc">
  <title id="title">Closed student laptop with charger</title>
  <desc id="desc">Illustration of a laptop, notebook, and charger arranged on a study surface.</desc>
  <rect width="1200" height="900" fill="#eef4f0"/>
  <rect x="0" y="590" width="1200" height="310" fill="#d9c7aa"/>
  <rect x="250" y="270" width="700" height="170" rx="28" fill="#4a6572"/>
  <rect x="290" y="305" width="620" height="100" rx="18" fill="#627d8a"/>
  <rect x="470" y="440" width="260" height="28" rx="14" fill="#31444d"/>
  <rect x="118" y="210" width="150" height="240" rx="16" fill="#ffffff"/>
  <rect x="140" y="238" width="106" height="18" rx="9" fill="#ec6f36"/>
  <rect x="140" y="280" width="86" height="12" rx="6" fill="#c1cad0"/>
  <rect x="140" y="312" width="96" height="12" rx="6" fill="#c1cad0"/>
  <rect x="140" y="344" width="74" height="12" rx="6" fill="#c1cad0"/>
  <circle cx="970" cy="320" r="80" fill="#13232f"/>
  <circle cx="970" cy="320" r="52" fill="#f6efe1"/>
  <rect x="820" y="380" width="160" height="22" rx="11" fill="#13232f"/>
  <rect x="720" y="645" width="250" height="110" rx="22" fill="#7eb7b1"/>
  <rect x="748" y="675" width="194" height="18" rx="9" fill="#f4fcfb"/>
  <rect x="748" y="708" width="148" height="16" rx="8" fill="#d8efec"/>
</svg>
