<svg xmlns="http://www.w3.org/2000/svg" viewBox="0 0 1200 900" role="img" aria-labelledby="title desc">
  <title id="title">Study corner in a single room</title>
  <desc id="desc">Illustration of a study corner with desk lamp, chair, and shelving inside a room.</desc>
  <rect width="1200" height="900" fill="#f5f1e8"/>
  <rect x="0" y="640" width="1200" height="260" fill="#ccb287"/>
  <rect x="100" y="120" width="320" height="180" rx="18" fill="#d7edf5"/>
  <line x1="260" y1="120" x2="260" y2="300" stroke="#ffffff" stroke-width="10"/>
  <line x1="100" y1="210" x2="420" y2="210" stroke="#ffffff" stroke-width="10"/>
  <rect x="580" y="360" width="360" height="42" rx="18" fill="#a26e45"/>
  <rect x="620" y="402" width="24" height="178" fill="#8d5c39"/>
  <rect x="876" y="402" width="24" height="178" fill="#8d5c39"/>
  <rect x="660" y="270" width="90" height="90" rx="16" fill="#13232f"/>
  <rect x="695" y="215" width="18" height="70" rx="9" fill="#13232f"/>
  <circle cx="704" cy="206" r="28" fill="#f2c66d"/>
  <rect x="470" y="470" width="92" height="140" rx="20" fill="#7eb7b1"/>
  <rect x="486" y="610" width="60" height="24" rx="12" fill="#5e8b86"/>
  <rect x="980" y="230" width="120" height="350" rx="18" fill="#ec6f36"/>
  <rect x="1008" y="270" width="64" height="16" rx="8" fill="#f7d4c1"/>
  <rect x="1008" y="308" width="64" height="16" rx="8" fill="#f7d4c1"/>
  <rect x="1008" y="346" width="64" height="16" rx="8" fill="#f7d4c1"/>
  <rect x="1008" y="384" width="64" height="16" rx="8" fill="#f7d4c1"/>
</svg>
