<svg xmlns="http://www.w3.org/2000/svg" viewBox="0 0 1200 900" role="img" aria-labelledby="title desc">
  <title id="title">Single student room</title>
  <desc id="desc">Illustration of a student room with bed, study desk, and wardrobe.</desc>
  <rect width="1200" height="900" fill="#f7efe2"/>
  <rect x="0" y="650" width="1200" height="250" fill="#d7bf98"/>
  <rect x="0" y="0" width="1200" height="650" fill="#fbf7ef"/>
  <rect x="90" y="100" width="260" height="220" rx="18" fill="#d8edf6"/>
  <line x1="220" y1="100" x2="220" y2="320" stroke="#ffffff" stroke-width="10"/>
  <line x1="90" y1="210" x2="350" y2="210" stroke="#ffffff" stroke-width="10"/>
  <rect x="120" y="420" width="420" height="150" rx="24" fill="#f2c66d"/>
  <rect x="120" y="390" width="420" height="72" rx="22" fill="#fff7e4"/>
  <rect x="148" y="360" width="160" height="52" rx="18" fill="#ec6f36"/>
  <rect x="660" y="360" width="280" height="210" rx="18" fill="#a26e45"/>
  <rect x="694" y="396" width="212" height="18" rx="9" fill="#f6efe1"/>
  <rect x="694" y="432" width="160" height="18" rx="9" fill="#e4d4ba"/>
  <rect x="694" y="468" width="182" height="18" rx="9" fill="#e4d4ba"/>
  <rect x="930" y="250" width="150" height="360" rx="18" fill="#275245"/>
  <rect x="1000" y="250" width="8" height="360" fill="#dce9e4"/>
  <circle cx="995" cy="430" r="10" fill="#f6efe1"/>
</svg>
